<svg width="32" height="32" viewBox="0 0 32 32" fill="none" xmlns="http://www.w3.org/2000/svg">
<path d="M31.9996 16C31.9996 7.16535 24.8367 0 16.0011 0C7.1629 0 0 7.16535 0 16C0 24.8358 7.1629 32 16.0011 32C24.8364 32 31.9996 24.8358 31.9996 16Z" fill="#1DA1F2"/>
<path d="M25.2843 11.1991C24.6437 11.4589 23.9574 11.6363 23.2424 11.7207C24.0004 11.2749 24.5911 10.5824 24.8997 9.75422C24.9191 9.70231 24.8616 9.65507 24.8133 9.68203C24.0989 10.0802 23.3149 10.3718 22.4824 10.5327C21.7748 9.7892 20.7637 9.32397 19.6438 9.32397C17.4988 9.32397 15.7565 11.0383 15.7565 13.1512C15.7565 13.4518 15.7912 13.743 15.8567 14.0237C12.6362 13.8637 9.77959 12.3495 7.86186 10.0481C7.85228 10.0365 7.83401 10.0381 7.82644 10.051C7.50425 10.6105 7.31576 11.2591 7.31576 11.9489C7.31576 13.2461 7.97327 14.3947 8.97814 15.0872C8.99775 15.1008 8.9875 15.132 8.96366 15.1306C8.36987 15.0994 7.81017 14.9361 7.31664 14.6725C7.3026 14.665 7.28589 14.6739 7.28701 14.6899C7.29659 14.8581 7.3514 15.6081 7.54947 16.0905C8.03966 17.2848 9.09556 18.1981 10.4061 18.4576C10.0784 18.543 9.73302 18.5931 9.37942 18.5931C9.14302 18.5931 8.91062 18.5697 8.68202 18.528C8.66598 18.5249 8.65216 18.5407 8.65773 18.5563C9.15928 20.038 10.5543 21.1218 12.2129 21.1773C12.2352 21.1779 12.2448 21.2058 12.2269 21.2191C10.9037 22.2231 9.25086 22.8187 7.44922 22.8187C7.13461 22.8187 6.82891 22.8011 6.52344 22.7663C8.2442 23.8516 10.288 24.4851 12.4829 24.4851C15.508 24.4851 17.9532 23.4419 19.7675 21.8555C21.5983 20.2544 22.7873 18.1002 23.2821 15.9058C23.4564 15.134 23.5481 14.3555 23.5481 13.5952C23.5481 13.4306 23.5437 13.2646 23.5352 13.1006C24.2386 12.6002 24.856 11.9857 25.3562 11.2883C25.3914 11.2397 25.34 11.1766 25.2843 11.1991Z" fill="white"/>
</svg>
